<svg xmlns="http://www.w3.org/2000/svg" viewBox="0 0 64 64" fill="none" stroke="currentColor" stroke-width="2.4" stroke-linecap="round" stroke-linejoin="round" aria-hidden="true">
  <path d="M22 12c-5 0-9 4-9 9 0 2 .7 3.9 1.9 5.4-1.2 1.5-1.9 3.4-1.9 5.4 0 4 2.7 7.4 6.4 8.5C19.9 44.6 22.7 47 26 47c1.8 0 3.5-.7 4.8-1.9V12.9C29.5 12.3 27.8 12 26 12h-4z"/>
  <path d="M42 12c5 0 9 4 9 9 0 2-.7 3.9-1.9 5.4 1.2 1.5 1.9 3.4 1.9 5.4 0 4-2.7 7.4-6.4 8.5C44.1 44.6 41.3 47 38 47c-1.8 0-3.5-.7-4.8-1.9V12.9C34.5 12.3 36.2 12 38 12h4z"/>
  <path d="M32 12v40"/>
  <path d="M22 21c2 0 4 1 5 3M42 21c-2 0-4 1-5 3M19 30c2 0 4 1 5 3M45 30c-2 0-4 1-5 3"/>
  <circle cx="32" cy="54" r="2"/>
</svg>
